<svg id="Calque_1" data-name="Calque 1" xmlns="http://www.w3.org/2000/svg" viewBox="0 0 110.42 99"><defs><style>.cls-1,.cls-2{fill:#3364ff;}.cls-1{opacity:0.3;}.cls-3{fill:#fff203;}</style></defs><title>enterselect</title><path class="cls-1" d="M6.37,47.17H31.21a3.35,3.35,0,0,1,3.38,3.31V70.21c0,10.22,0,18.66,0,22.08,0,2.42.91,3.32,3.37,3.32,20.63,0,26.91.09,33.54,0.19,6.35,0.09,12.92.18,32.83,0.2h0a3.71,3.71,0,0,0,3-1.11,1,1,0,0,0,0-.16c0-11.52,0-71.48,0-83a2.54,2.54,0,0,0-2-2.56A6.86,6.86,0,0,0,104,9.1c-0.21,0-.41,0-0.64,0H77.41L65.58,8.75H6.29C3.21,8.75,3,9.15,3,11.89q0,16,0,32c0,2.42.91,3.32,3.37,3.32h0Z"/><path class="cls-2" d="M104.35,99h0c-19.93,0-26.5-.12-32.87-0.2-6.63-.09-12.89-0.18-33.5-0.19-4.1,0-6.36-2.24-6.37-6.32,0-3.43,0-11.86,0-22.08V50.48a0.36,0.36,0,0,0-.38-0.31H6.37C2.27,50.17,0,47.92,0,43.85q0-16,0-32C0,7.36,1.65,5.75,6.29,5.75H65.63L77.46,6.11h25.89c0.16,0,.38,0,0.57,0a9.39,9.39,0,0,1,2.15.12,5.51,5.51,0,0,1,4.34,5.49c0,11.53,0,71.49,0,83a4.82,4.82,0,0,1-.09.84l-0.08.58-0.25.32A6.59,6.59,0,0,1,104.35,99Zm-98-51.83H31.21a3.35,3.35,0,0,1,3.38,3.31V70.21c0,10.22,0,18.66,0,22.08,0,2.42.91,3.32,3.37,3.32,20.63,0,26.91.09,33.54,0.19,6.35,0.09,12.92.18,32.83,0.2h0a3.71,3.71,0,0,0,3-1.11,1,1,0,0,0,0-.16c0-11.52,0-71.48,0-83a2.54,2.54,0,0,0-2-2.56A6.86,6.86,0,0,0,104,9.1c-0.21,0-.41,0-0.64,0H77.41L65.58,8.75H6.29C3.21,8.75,3,9.15,3,11.89q0,16,0,32c0,2.42.91,3.32,3.37,3.32h0Z"/><path class="cls-3" d="M6.37,42.92c-3.29,0-4.87-1.57-4.87-4.82q0-16,0-32c0-3.68,1-4.64,4.78-4.64,13.93,0,98.7.28,99.47,0.44a4,4,0,0,1,3.15,4c0,11.53-.08,83.58-0.11,83.82a5.12,5.12,0,0,1-4.47,2c-40.54,0-25.83-.38-66.37-0.39-3.29,0-4.87-1.57-4.87-4.82,0-3.43,0-35.62,0-41.64V44.73a1.85,1.85,0,0,0-1.88-1.81H6.37Z"/><path class="cls-2" d="M104.35,93.25h0c-19.91,0-26.49-.12-32.85-0.21C64.86,92.95,58.6,92.86,38,92.86c-4.1,0-6.37-2.25-6.37-6.32,0-3.43,0-35.62,0-41.64V44.73a0.36,0.36,0,0,0-.39-0.31H6.37C2.27,44.42,0,42.17,0,38.1q0-16,0-32C0,1.61,1.65,0,6.29,0h0c4.53,0,98.62.23,99.77,0.47A5.51,5.51,0,0,1,110.41,6c0,0.83-.05,83.53-0.12,84l-0.05.4-0.25.32A6.59,6.59,0,0,1,104.35,93.25ZM6.4,3C3.2,3,3,3.36,3,6.14q0,16,0,32c0,2.42.91,3.32,3.37,3.32H31.21a3.35,3.35,0,0,1,3.38,3.31v0.17c0,6,0,38.22,0,41.64,0,2.42.92,3.32,3.37,3.32,20.65,0,26.92.09,33.56,0.18,6.35,0.09,12.92.18,32.81,0.21h0a3.75,3.75,0,0,0,3-1c0-6.46.11-70.88,0.1-83.26a2.55,2.55,0,0,0-1.87-2.54C102,3.27,20.86,3,6.4,3Z"/></svg>