<?xml version="1.0" encoding="utf-8"?>
<!-- Generator: Adobe Illustrator 19.2.1, SVG Export Plug-In . SVG Version: 6.00 Build 0)  -->
<svg version="1.1" id="Calque_1" xmlns="http://www.w3.org/2000/svg" xmlns:xlink="http://www.w3.org/1999/xlink" x="0px" y="0px"
	 viewBox="0 0 110.4 104" style="enable-background:new 0 0 110.4 104;" xml:space="preserve">
<style type="text/css">
	.st0{opacity:0.3;fill:#3364FF;enable-background:new    ;}
	.st1{fill:#3364FF;}
	.st2{fill:#FFF203;}
</style>
<title>enter</title>
<path class="st0" d="M6.4,52.2h24.8c1.8,0,3.4,1.5,3.4,3.3v19.7c0,10.2,0,18.7,0,22.1c0,2.4,0.9,3.3,3.4,3.3
	c20.6,0,26.9,0.1,33.5,0.2c6.3,0.1,12.9,0.2,32.8,0.2l0,0c1.1,0.1,2.2-0.3,3-1.1c0-0.1,0-0.1,0-0.2c0-11.5,0-71.5,0-83
	c0-1.2-0.8-2.3-2-2.6c-0.4-0.1-0.9-0.1-1.3-0.1c-0.2,0-0.4,0-0.6,0H77.4l-11.8-0.4H6.3c-3.1,0-3.3,0.4-3.3,3.1c0,10.7,0,21.3,0,32
	C3,51.3,3.9,52.2,6.4,52.2L6.4,52.2L6.4,52.2z"/>
<path class="st1" d="M104.3,104L104.3,104c-19.9,0-26.5-0.1-32.9-0.2c-6.6-0.1-12.9-0.2-33.5-0.2c-4.1,0-6.4-2.2-6.4-6.3
	c0-3.4,0-11.9,0-22.1V55.5c0-0.2-0.2-0.3-0.4-0.3H6.4c-4.1,0-6.4-2.2-6.4-6.3c0-10.7,0-21.3,0-32c0-4.5,1.6-6.1,6.3-6.1h59.3
	l11.8,0.4h25.9c0.2,0,0.4,0,0.6,0c0.7,0,1.4,0,2.2,0.1c2.6,0.6,4.4,2.9,4.3,5.5c0,11.5,0,71.5,0,83c0,0.3,0,0.6-0.1,0.8l-0.1,0.6
	l-0.2,0.3C108.7,103.2,106.5,104.1,104.3,104z M6.3,52.2h24.9c1.8,0,3.4,1.5,3.4,3.3v19.7c0,10.2,0,18.7,0,22.1
	c0,2.4,0.9,3.3,3.4,3.3c20.6,0,26.9,0.1,33.5,0.2c6.3,0.1,12.9,0.2,32.8,0.2l0,0c1.1,0.1,2.2-0.3,3-1.1c0-0.1,0-0.1,0-0.2
	c0-11.5,0-71.5,0-83c0-1.2-0.8-2.3-2-2.6c-0.4-0.1-0.9-0.1-1.3-0.1c-0.2,0-0.4,0-0.6,0H77.4l-11.8-0.4H6.3c-3.1,0-3.3,0.4-3.3,3.1
	c0,10.7,0,21.3,0,32C3,51.3,3.9,52.2,6.3,52.2L6.3,52.2L6.3,52.2z"/>
<path class="st2" d="M6.4,42.9c-3.3,0-4.9-1.6-4.9-4.8c0-10.7,0-21.3,0-32c0-3.7,1-4.6,4.8-4.6c13.9,0,98.7,0.3,99.5,0.4
	c1.9,0.4,3.2,2.1,3.2,4c0,11.5-0.1,83.6-0.1,83.8c-1.1,1.4-2.7,2.1-4.5,2c-40.5,0-25.8-0.4-66.4-0.4c-3.3,0-4.9-1.6-4.9-4.8
	c0-3.4,0-35.6,0-41.6v-0.1c0-1-0.9-1.8-1.9-1.8H6.4z"/>
<path class="st1" d="M104.3,93.2L104.3,93.2c-19.9,0-26.5-0.1-32.8-0.2c-6.6-0.1-12.9-0.2-33.5-0.2c-4.1,0-6.4-2.2-6.4-6.3
	c0-3.4,0-35.6,0-41.6v-0.2c0-0.2-0.2-0.3-0.4-0.3H6.4c-4.1,0-6.4-2.2-6.4-6.3c0-10.7,0-21.3,0-32C0,1.6,1.6,0,6.3,0l0,0
	c4.5,0,98.6,0.2,99.8,0.5c2.6,0.6,4.4,2.9,4.4,5.5c0,0.8-0.1,83.5-0.1,84l-0.1,0.4l-0.2,0.3C108.6,92.4,106.5,93.4,104.3,93.2z
	 M6.4,3C3.2,3,3,3.4,3,6.1c0,10.7,0,21.3,0,32c0,2.4,0.9,3.3,3.4,3.3h24.8c1.8,0,3.4,1.5,3.4,3.3v0.2c0,6,0,38.2,0,41.6
	c0,2.4,0.9,3.3,3.4,3.3c20.7,0,26.9,0.1,33.6,0.2c6.3,0.1,12.9,0.2,32.8,0.2l0,0c1.1,0.1,2.2-0.2,3-1c0-6.5,0.1-70.9,0.1-83.3
	c0-1.2-0.7-2.2-1.9-2.5C102,3.3,20.9,3,6.4,3z"/>
</svg>
