<?xml version="1.0" encoding="utf-8"?>
<!-- Generator: Adobe Illustrator 19.1.0, SVG Export Plug-In . SVG Version: 6.00 Build 0)  -->
<svg version="1.1" id="Calque_1" xmlns="http://www.w3.org/2000/svg" xmlns:xlink="http://www.w3.org/1999/xlink" x="0px" y="0px"
	 viewBox="0 0 24 24" style="enable-background:new 0 0 24 24;" xml:space="preserve">
<style type="text/css">
	.st0{opacity:0;clip-path:url(#SVGID_2_);}
	.st1{clip-path:url(#SVGID_2_);fill:#3364FF;}
</style>
<g>
	<defs>
		<rect id="SVGID_1_" width="24" height="24"/>
	</defs>
	<clipPath id="SVGID_2_">
		<use xlink:href="#SVGID_1_"  style="overflow:visible;"/>
	</clipPath>
	<rect class="st0" width="24" height="24"/>
	<path class="st1" d="M7.5,14H4v-4h3.5L11,5L11,19L7.5,14z M11.8,3.2C11,2.8,10.1,3,9.6,3.6L6.5,8H4c-1.1,0-2,0.9-2,2v4
		c0,1.1,0.9,2,2,2h2.5l3,4.3c0.4,0.5,1,0.7,1.5,0.7c0.3,0,0.5-0.1,0.8-0.2c0.8-0.3,1.2-1,1.2-1.8V5C13,4.2,12.5,3.5,11.8,3.2z"/>
	<path class="st1" d="M15,4v2c2.8,0,5,2.2,5,5s-2.2,5-5,5v2c3.9,0,7-3.1,7-7C22,7.1,18.9,4,15,4z"/>
	<path class="st1" d="M18,11c0-1.7-1.3-3-3-3v2c0.6,0,1,0.4,1,1c0,0.6-0.4,1-1,1v2C16.7,14,18,12.7,18,11z"/>
</g>
</svg>
